ffmpeg started on 2025-06-06 at 18:04:51
Report written to "D:\Convert\FFMetrics\reports\psnr_report-6.txt"
Log level: 32
Command line:
ffmpeg -hide_banner -nostdin -i "G:\\\xc0\xed\xe8\xec\xe5\\\xce\xed\xe3\xee\xe8\xed\xe3\xe8\\!_36_\xce\xf1\xe5\xed\xfc_2024\\DreamCast\\\xcf\xee\xe2\xe5\xeb\xe8\xf2\xe5\xeb\xfc \xe4\xe5\xec\xee\xed\xee\xe2 2099\\[DC] Maou 2099 - 12_Telegram_HEVC.mkv" -i "G:\\\xc0\xed\xe8\xec\xe5\\\xce\xed\xe3\xee\xe8\xed\xe3\xe8\\!_36_\xce\xf1\xe5\xed\xfc_2024\\DreamCast\\\xcf\xee\xe2\xe5\xeb\xe8\xf2\xe5\xeb\xfc \xe4\xe5\xec\xee\xed\xee\xe2 2099\\[DC] Maou 2099 - 12_Telegram.mp4" -lavfi "[0:v]settb=AVTB,setpts=PTS-STARTPTS,format=pix_fmts=yuv420p10,fps=24000/1001,scale=1920:1080:flags=bicubic[main];[1:v]settb=AVTB,setpts=PTS-STARTPTS,format=pix_fmts=yuv420p,fps=24000/1001,scale=1920:1080:flags=bicubic[ref];[main][ref]psnr=eof_action=endall:stats_file='D\\:/Convert/FFMetrics/logs/psnr_logfile-6.txt'" -f null -
Input #0, matroska,webm, from 'G:\Аниме\Онгоинги\!_36_Осень_2024\DreamCast\Повелитель демонов 2099\[DC] Maou 2099 - 12_Telegram_HEVC.mkv':
  Metadata:
    COMPATIBLE_BRANDS: isomiso2avc1mp41
    MAJOR_BRAND     : isom
    MINOR_VERSION   : 512
    ENCODER         : Lavf61.7.100
  Duration: 00:23:46.60, start: -0.021000, bitrate: 1545 kb/s
  Stream #0:0: Video: hevc (Main 10), yuv420p10le(tv, bt709, progressive), 1920x1080 [SAR 1:1 DAR 16:9], 23.98 fps, 23.98 tbr, 1k tbn (default)
      Metadata:
        HANDLER_NAME    : VideoHandler
        VENDOR_ID       : [0][0][0][0]
        ENCODER         : Lavc61.19.100 libx265
        BPS             : 1347805
        DURATION        : 00:23:46.508708333
        NUMBER_OF_FRAMES: 34202
        NUMBER_OF_BYTES : 240331857
        _STATISTICS_WRITING_APP: mkvpropedit v66.0.0 ('Josie') 64-bit
        _STATISTICS_WRITING_DATE_UTC: 2025-06-02 16:34:33
        _STATISTICS_TAGS: BPS DURATION NUMBER_OF_FRAMES NUMBER_OF_BYTES
  Stream #0:1: Audio: aac (LC), 48000 Hz, stereo, fltp (default)
      Metadata:
        HANDLER_NAME    : SoundHandler
        VENDOR_ID       : [0][0][0][0]
        ENCODER         : Lavc61.19.100 aac
        BPS             : 193413
        DURATION        : 00:23:46.602000000
        NUMBER_OF_FRAMES: 66873
        NUMBER_OF_BYTES : 34490490
        _STATISTICS_WRITING_APP: mkvpropedit v66.0.0 ('Josie') 64-bit
        _STATISTICS_WRITING_DATE_UTC: 2025-06-02 16:34:33
        _STATISTICS_TAGS: BPS DURATION NUMBER_OF_FRAMES NUMBER_OF_BYTES
Input #1, mov,mp4,m4a,3gp,3g2,mj2, from 'G:\Аниме\Онгоинги\!_36_Осень_2024\DreamCast\Повелитель демонов 2099\[DC] Maou 2099 - 12_Telegram.mp4':
  Metadata:
    major_brand     : isom
    minor_version   : 512
    compatible_brands: isomiso2avc1mp41
    encoder         : Lavf61.1.100
  Duration: 00:23:46.57, start: 0.000000, bitrate: 3402 kb/s
  Stream #1:0[0x1](und): Video: h264 (High) (avc1 / 0x31637661), yuv420p(tv, bt709, progressive), 1920x1080 [SAR 1:1 DAR 16:9], 3255 kb/s, 23.98 fps, 23.98 tbr, 24k tbn (default)
      Metadata:
        handler_name    : VideoHandler
        vendor_id       : [0][0][0][0]
        encoder         : Lavc61.3.100 h264_qsv
  Stream #1:1[0x2](und): Audio: aac (HE-AACv2) (mp4a / 0x6134706D), 48000 Hz, stereo, fltp, 144 kb/s (default)
      Metadata:
        handler_name    : SoundHandler
        vendor_id       : [0][0][0][0]
Stream mapping:
  Stream #0:0 (hevc) -> settb:default
  Stream #1:0 (h264) -> settb:default
  psnr:default -> Stream #0:0 (wrapped_avframe)
  Stream #0:1 -> #0:1 (aac (native) -> pcm_s16le (native))
Output #0, null, to 'pipe:':
  Metadata:
    COMPATIBLE_BRANDS: isomiso2avc1mp41
    MAJOR_BRAND     : isom
    MINOR_VERSION   : 512
    encoder         : Lavf61.7.100
  Stream #0:0: Video: wrapped_avframe, yuv420p10le(tv, bt709, progressive), 1920x1080 [SAR 1:1 DAR 16:9], q=2-31, 200 kb/s, 23.98 fps, 23.98 tbn
      Metadata:
        encoder         : Lavc61.19.100 wrapped_avframe
  Stream #0:1: Audio: pcm_s16le, 48000 Hz, stereo, s16, 1536 kb/s (default)
      Metadata:
        HANDLER_NAME    : SoundHandler
        VENDOR_ID       : [0][0][0][0]
        _STATISTICS_TAGS: BPS DURATION NUMBER_OF_FRAMES NUMBER_OF_BYTES
        BPS             : 193413
        DURATION        : 00:23:46.602000000
        NUMBER_OF_FRAMES: 66873
        NUMBER_OF_BYTES : 34490490
        _STATISTICS_WRITING_APP: mkvpropedit v66.0.0 ('Josie') 64-bit
        _STATISTICS_WRITING_DATE_UTC: 2025-06-02 16:34:33
        encoder         : Lavc61.19.100 pcm_s16le
frame=  180 fps=0.0 q=-0.0 size=N/A time=00:00:07.50 bitrate=N/A speed=14.3x    frame=  456 fps=441 q=-0.0 size=N/A time=00:00:19.01 bitrate=N/A speed=18.4x    frame=  706 fps=454 q=-0.0 size=N/A time=00:00:29.44 bitrate=N/A speed=18.9x    frame=  953 fps=462 q=-0.0 size=N/A time=00:00:39.74 bitrate=N/A speed=19.3x    frame= 1158 fps=448 q=-0.0 size=N/A time=00:00:48.29 bitrate=N/A speed=18.7x    frame= 1414 fps=457 q=-0.0 size=N/A time=00:00:58.97 bitrate=N/A speed=19.1x    frame= 1700 fps=470 q=-0.0 size=N/A time=00:01:10.90 bitrate=N/A speed=19.6x    frame= 1960 fps=475 q=-0.0 size=N/A time=00:01:21.74 bitrate=N/A speed=19.8x    frame= 2197 fps=473 q=-0.0 size=N/A time=00:01:31.63 bitrate=N/A speed=19.7x    frame= 2398 fps=465 q=-0.0 size=N/A time=00:01:40.05 bitrate=N/A speed=19.4x    frame= 2647 fps=466 q=-0.0 size=N/A time=00:01:50.40 bitrate=N/A speed=19.4x    frame= 2867 fps=463 q=-0.0 size=N/A time=00:01:59.57 bitrate=N/A speed=19.3x    frame= 3074 fps=458 q=-0.0 size=N/A time=00:02:08.21 bitrate=N/A speed=19.1x    frame= 3259 fps=450 q=-0.0 size=N/A time=00:02:15.92 bitrate=N/A speed=18.8x    frame= 3448 fps=444 q=-0.0 size=N/A time=00:02:23.81 bitrate=N/A speed=18.5x    frame= 3642 fps=440 q=-0.0 size=N/A time=00:02:31.90 bitrate=N/A speed=18.4x    frame= 3860 fps=439 q=-0.0 size=N/A time=00:02:40.99 bitrate=N/A speed=18.3x    frame= 4122 fps=443 q=-0.0 size=N/A time=00:02:51.92 bitrate=N/A speed=18.5x    frame= 4376 fps=446 q=-0.0 size=N/A time=00:03:02.51 bitrate=N/A speed=18.6x    frame= 4657 fps=451 q=-0.0 size=N/A time=00:03:14.23 bitrate=N/A speed=18.8x    frame= 4911 fps=452 q=-0.0 size=N/A time=00:03:24.82 bitrate=N/A speed=18.9x    frame= 5140 fps=452 q=-0.0 size=N/A time=00:03:34.38 bitrate=N/A speed=18.9x    frame= 5346 fps=450 q=-0.0 size=N/A time=00:03:42.97 bitrate=N/A speed=18.8x    frame= 5541 fps=447 q=-0.0 size=N/A time=00:03:51.10 bitrate=N/A speed=18.7x    frame= 5767 fps=447 q=-0.0 size=N/A time=00:04:00.53 bitrate=N/A speed=18.6x    frame= 5951 fps=443 q=-0.0 size=N/A time=00:04:08.20 bitrate=N/A speed=18.5x    frame= 6127 fps=439 q=-0.0 size=N/A time=00:04:15.54 bitrate=N/A speed=18.3x    frame= 6365 fps=440 q=-0.0 size=N/A time=00:04:25.47 bitrate=N/A speed=18.4x    frame= 6635 fps=443 q=-0.0 size=N/A time=00:04:36.73 bitrate=N/A speed=18.5x    frame= 6909 fps=446 q=-0.0 size=N/A time=00:04:48.16 bitrate=N/A speed=18.6x    frame= 7117 fps=445 q=-0.0 size=N/A time=00:04:56.83 bitrate=N/A speed=18.5x    frame= 7357 fps=445 q=-0.0 size=N/A time=00:05:06.84 bitrate=N/A speed=18.6x    frame= 7582 fps=445 q=-0.0 size=N/A time=00:05:16.23 bitrate=N/A speed=18.6x    frame= 7791 fps=444 q=-0.0 size=N/A time=00:05:24.94 bitrate=N/A speed=18.5x    frame= 7979 fps=442 q=-0.0 size=N/A time=00:05:32.79 bitrate=N/A speed=18.4x    frame= 8183 fps=440 q=-0.0 size=N/A time=00:05:41.29 bitrate=N/A speed=18.4x    frame= 8445 fps=442 q=-0.0 size=N/A time=00:05:52.22 bitrate=N/A speed=18.4x    frame= 8699 fps=443 q=-0.0 size=N/A time=00:06:02.82 bitrate=N/A speed=18.5x    frame= 8960 fps=445 q=-0.0 size=N/A time=00:06:13.70 bitrate=N/A speed=18.6x    frame= 9212 fps=446 q=-0.0 size=N/A time=00:06:24.21 bitrate=N/A speed=18.6x    frame= 9474 fps=447 q=-0.0 size=N/A time=00:06:35.14 bitrate=N/A speed=18.7x    frame= 9730 fps=448 q=-0.0 size=N/A time=00:06:45.82 bitrate=N/A speed=18.7x    frame= 9917 fps=447 q=-0.0 size=N/A time=00:06:53.62 bitrate=N/A speed=18.6x    frame=10130 fps=446 q=-0.0 size=N/A time=00:07:02.50 bitrate=N/A speed=18.6x    frame=10351 fps=445 q=-0.0 size=N/A time=00:07:11.72 bitrate=N/A speed=18.6x    frame=10575 fps=445 q=-0.0 size=N/A time=00:07:21.06 bitrate=N/A speed=18.6x    frame=10850 fps=447 q=-0.0 size=N/A time=00:07:32.53 bitrate=N/A speed=18.6x    frame=11114 fps=449 q=-0.0 size=N/A time=00:07:43.54 bitrate=N/A speed=18.7x    frame=11396 fps=450 q=-0.0 size=N/A time=00:07:55.30 bitrate=N/A speed=18.8x    frame=11646 fps=451 q=-0.0 size=N/A time=00:08:05.73 bitrate=N/A speed=18.8x    frame=11844 fps=450 q=-0.0 size=N/A time=00:08:13.99 bitrate=N/A speed=18.8x    frame=12071 fps=450 q=-0.0 size=N/A time=00:08:23.46 bitrate=N/A speed=18.8x    frame=12274 fps=448 q=-0.0 size=N/A time=00:08:31.92 bitrate=N/A speed=18.7x    frame=12465 fps=447 q=-0.0 size=N/A time=00:08:39.89 bitrate=N/A speed=18.6x    frame=12601 fps=444 q=-0.0 size=N/A time=00:08:45.56 bitrate=N/A speed=18.5x    frame=12752 fps=441 q=-0.0 size=N/A time=00:08:51.86 bitrate=N/A speed=18.4x    frame=12972 fps=441 q=-0.0 size=N/A time=00:09:01.04 bitrate=N/A speed=18.4x    frame=13229 fps=442 q=-0.0 size=N/A time=00:09:11.75 bitrate=N/A speed=18.4x    frame=13414 fps=440 q=-0.0 size=N/A time=00:09:19.47 bitrate=N/A speed=18.4x    frame=13617 fps=440 q=-0.0 size=N/A time=00:09:27.94 bitrate=N/A speed=18.3x    frame=13889 fps=441 q=-0.0 size=N/A time=00:09:39.28 bitrate=N/A speed=18.4x    frame=14169 fps=443 q=-0.0 size=N/A time=00:09:50.96 bitrate=N/A speed=18.5x    frame=14412 fps=443 q=-0.0 size=N/A time=00:10:01.10 bitrate=N/A speed=18.5x    frame=14685 fps=444 q=-0.0 size=N/A time=00:10:12.48 bitrate=N/A speed=18.5x    frame=14928 fps=445 q=-0.0 size=N/A time=00:10:22.62 bitrate=N/A speed=18.6x    frame=15159 fps=445 q=-0.0 size=N/A time=00:10:32.25 bitrate=N/A speed=18.6x    frame=15344 fps=444 q=-0.0 size=N/A time=00:10:39.97 bitrate=N/A speed=18.5x    frame=15602 fps=445 q=-0.0 size=N/A time=00:10:50.73 bitrate=N/A speed=18.5x    frame=15862 fps=445 q=-0.0 size=N/A time=00:11:01.57 bitrate=N/A speed=18.6x    frame=16122 fps=446 q=-0.0 size=N/A time=00:11:12.42 bitrate=N/A speed=18.6x    frame=16353 fps=446 q=-0.0 size=N/A time=00:11:22.05 bitrate=N/A speed=18.6x    frame=16598 fps=447 q=-0.0 size=N/A time=00:11:32.27 bitrate=N/A speed=18.6x    frame=16842 fps=447 q=-0.0 size=N/A time=00:11:42.45 bitrate=N/A speed=18.6x    frame=17082 fps=447 q=-0.0 size=N/A time=00:11:52.46 bitrate=N/A speed=18.7x    frame=17342 fps=448 q=-0.0 size=N/A time=00:12:03.30 bitrate=N/A speed=18.7x    frame=17586 fps=448 q=-0.0 size=N/A time=00:12:13.48 bitrate=N/A speed=18.7x    frame=17781 fps=447 q=-0.0 size=N/A time=00:12:21.61 bitrate=N/A speed=18.7x    frame=17988 fps=447 q=-0.0 size=N/A time=00:12:30.24 bitrate=N/A speed=18.6x    frame=18226 fps=447 q=-0.0 size=N/A time=00:12:40.17 bitrate=N/A speed=18.6x    frame=18484 fps=448 q=-0.0 size=N/A time=00:12:50.93 bitrate=N/A speed=18.7x    frame=18748 fps=448 q=-0.0 size=N/A time=00:13:01.94 bitrate=N/A speed=18.7x    frame=18965 fps=448 q=-0.0 size=N/A time=00:13:10.99 bitrate=N/A speed=18.7x    frame=19170 fps=448 q=-0.0 size=N/A time=00:13:19.54 bitrate=N/A speed=18.7x    frame=19338 fps=446 q=-0.0 size=N/A time=00:13:26.55 bitrate=N/A speed=18.6x    frame=19568 fps=446 q=-0.0 size=N/A time=00:13:36.14 bitrate=N/A speed=18.6x    frame=19831 fps=447 q=-0.0 size=N/A time=00:13:47.11 bitrate=N/A speed=18.6x    frame=20112 fps=448 q=-0.0 size=N/A time=00:13:58.83 bitrate=N/A speed=18.7x    frame=20384 fps=449 q=-0.0 size=N/A time=00:14:10.18 bitrate=N/A speed=18.7x    frame=20651 fps=450 q=-0.0 size=N/A time=00:14:21.31 bitrate=N/A speed=18.8x    frame=20886 fps=450 q=-0.0 size=N/A time=00:14:31.12 bitrate=N/A speed=18.8x    frame=21114 fps=450 q=-0.0 size=N/A time=00:14:40.62 bitrate=N/A speed=18.8x    frame=21226 fps=447 q=-0.0 size=N/A time=00:14:45.30 bitrate=N/A speed=18.6x    frame=21383 fps=446 q=-0.0 size=N/A time=00:14:51.84 bitrate=N/A speed=18.6x    frame=21551 fps=444 q=-0.0 size=N/A time=00:14:58.85 bitrate=N/A speed=18.5x    frame=21733 fps=443 q=-0.0 size=N/A time=00:15:06.44 bitrate=N/A speed=18.5x    frame=21915 fps=442 q=-0.0 size=N/A time=00:15:14.03 bitrate=N/A speed=18.5x    frame=22129 fps=442 q=-0.0 size=N/A time=00:15:22.96 bitrate=N/A speed=18.4x    frame=22347 fps=442 q=-0.0 size=N/A time=00:15:32.05 bitrate=N/A speed=18.4x    frame=22567 fps=442 q=-0.0 size=N/A time=00:15:41.23 bitrate=N/A speed=18.4x    frame=22769 fps=441 q=-0.0 size=N/A time=00:15:49.65 bitrate=N/A speed=18.4x    frame=23049 fps=442 q=-0.0 size=N/A time=00:16:01.33 bitrate=N/A speed=18.4x    frame=23321 fps=443 q=-0.0 size=N/A time=00:16:12.68 bitrate=N/A speed=18.5x    frame=23584 fps=444 q=-0.0 size=N/A time=00:16:23.64 bitrate=N/A speed=18.5x    frame=23850 fps=444 q=-0.0 size=N/A time=00:16:34.74 bitrate=N/A speed=18.5x    frame=24124 fps=445 q=-0.0 size=N/A time=00:16:46.17 bitrate=N/A speed=18.6x    frame=24348 fps=445 q=-0.0 size=N/A time=00:16:55.51 bitrate=N/A speed=18.6x    frame=24621 fps=446 q=-0.0 size=N/A time=00:17:06.90 bitrate=N/A speed=18.6x    frame=24884 fps=447 q=-0.0 size=N/A time=00:17:17.87 bitrate=N/A speed=18.6x    frame=25126 fps=447 q=-0.0 size=N/A time=00:17:27.96 bitrate=N/A speed=18.6x    frame=25374 fps=447 q=-0.0 size=N/A time=00:17:38.30 bitrate=N/A speed=18.6x    frame=25623 fps=447 q=-0.0 size=N/A time=00:17:48.69 bitrate=N/A speed=18.7x    frame=25825 fps=447 q=-0.0 size=N/A time=00:17:57.11 bitrate=N/A speed=18.6x    frame=26071 fps=447 q=-0.0 size=N/A time=00:18:07.33 bitrate=N/A speed=18.7x    frame=26273 fps=447 q=-0.0 size=N/A time=00:18:15.80 bitrate=N/A speed=18.6x    frame=26457 fps=446 q=-0.0 size=N/A time=00:18:23.47 bitrate=N/A speed=18.6x    frame=26704 fps=446 q=-0.0 size=N/A time=00:18:33.77 bitrate=N/A speed=18.6x    frame=26846 fps=445 q=-0.0 size=N/A time=00:18:39.70 bitrate=N/A speed=18.5x    frame=27095 fps=445 q=-0.0 size=N/A time=00:18:50.08 bitrate=N/A speed=18.6x    frame=27379 fps=446 q=-0.0 size=N/A time=00:19:01.93 bitrate=N/A speed=18.6x    frame=27614 fps=446 q=-0.0 size=N/A time=00:19:11.73 bitrate=N/A speed=18.6x    frame=27878 fps=446 q=-0.0 size=N/A time=00:19:22.74 bitrate=N/A speed=18.6x    frame=28143 fps=447 q=-0.0 size=N/A time=00:19:33.79 bitrate=N/A speed=18.6x    frame=28404 fps=447 q=-0.0 size=N/A time=00:19:44.68 bitrate=N/A speed=18.7x    frame=28627 fps=447 q=-0.0 size=N/A time=00:19:53.98 bitrate=N/A speed=18.7x    frame=28902 fps=448 q=-0.0 size=N/A time=00:20:05.45 bitrate=N/A speed=18.7x    frame=29078 fps=447 q=-0.0 size=N/A time=00:20:12.79 bitrate=N/A speed=18.7x    frame=29322 fps=447 q=-0.0 size=N/A time=00:20:22.97 bitrate=N/A speed=18.7x    frame=29596 fps=448 q=-0.0 size=N/A time=00:20:34.39 bitrate=N/A speed=18.7x    frame=29861 fps=449 q=-0.0 size=N/A time=00:20:45.45 bitrate=N/A speed=18.7x    frame=30132 fps=449 q=-0.0 size=N/A time=00:20:56.75 bitrate=N/A speed=18.7x    frame=30386 fps=449 q=-0.0 size=N/A time=00:21:07.34 bitrate=N/A speed=18.7x    frame=30648 fps=450 q=-0.0 size=N/A time=00:21:18.27 bitrate=N/A speed=18.8x    frame=30910 fps=450 q=-0.0 size=N/A time=00:21:29.20 bitrate=N/A speed=18.8x    frame=31197 fps=451 q=-0.0 size=N/A time=00:21:41.17 bitrate=N/A speed=18.8x    frame=31474 fps=452 q=-0.0 size=N/A time=00:21:52.72 bitrate=N/A speed=18.8x    frame=31721 fps=452 q=-0.0 size=N/A time=00:22:03.03 bitrate=N/A speed=18.9x    frame=31980 fps=452 q=-0.0 size=N/A time=00:22:13.83 bitrate=N/A speed=18.9x    frame=32212 fps=452 q=-0.0 size=N/A time=00:22:23.50 bitrate=N/A speed=18.9x    frame=32414 fps=452 q=-0.0 size=N/A time=00:22:31.93 bitrate=N/A speed=18.8x    frame=32618 fps=452 q=-0.0 size=N/A time=00:22:40.44 bitrate=N/A speed=18.8x    frame=32875 fps=452 q=-0.0 size=N/A time=00:22:51.16 bitrate=N/A speed=18.8x    frame=33100 fps=452 q=-0.0 size=N/A time=00:23:00.54 bitrate=N/A speed=18.8x    frame=33320 fps=452 q=-0.0 size=N/A time=00:23:09.72 bitrate=N/A speed=18.8x    frame=33545 fps=451 q=-0.0 size=N/A time=00:23:19.10 bitrate=N/A speed=18.8x    frame=33773 fps=451 q=-0.0 size=N/A time=00:23:28.61 bitrate=N/A speed=18.8x    frame=34011 fps=451 q=-0.0 size=N/A time=00:23:38.54 bitrate=N/A speed=18.8x    [Parsed_psnr_10 @ 000002f0c97be300] PSNR y:48.159828 u:48.375936 v:49.192746 average:48.352383 min:40.390789 max:inf
[out#0/null @ 000002f0bc6e4500] video:14696KiB audio:267492KiB subtitle:0KiB other streams:0KiB global headers:0KiB muxing overhead: unknown
frame=34202 fps=452 q=-0.0 Lsize=N/A time=00:23:46.50 bitrate=N/A speed=18.8x    
